<svg xmlns="http://www.w3.org/2000/svg" viewBox="0 0 860 1100" role="img" aria-labelledby="title description">
  <title id="title">嘉義市村里界線</title>
  <desc id="description">由 VILLAGE_NLSC_1150817.shp 轉換，資料版本 2026-08-17。座標系統與 taiwan-counties.svg、taiwan-townships.svg 相同。</desc>
  <metadata>
    Geometry source: VILLAGE_NLSC_1150817.shp
    Original dataset: https://data.gov.tw/dataset/7438
    License: 政府資料開放授權條款第1版
    Converted by scripts/convert-village-geojson-to-svg.mjs
  </metadata>
  <style>
    .village { fill: #dce4df; stroke: #fff; stroke-linejoin: round; stroke-width: 0.4; vector-effect: non-scaling-stroke; }
    .village.unassigned { fill: #eef1ef; }
  </style>
  <g class="villages">
    <path id="vill-10020010001" class="village" data-vill-code="10020010001" data-vill-name="荖藤里" data-town-id="I01" data-town-code="10020010" data-town-name="東區" data-county-code="10020" data-county-name="嘉義市" aria-label="嘉義市東區荖藤里" fill-rule="evenodd" d="M360.719 597.545L360.831 597.545L361.126 597.818L361.594 597.906L362.139 598.167L361.143 598.518L360.022 598.636L359.641 598.767L360.394 600.106L360.681 601.063L360.384 601.129L360.143 601.343L359.372 602.986L357.782 600.129L357.316 599.794L357.324 599.451L357.005 598.754L357.254 598.58L357.33 598.358L357.374 598.093L357.226 597.98L357.253 597.851L357.626 597.793L357.962 598.053L358.198 598.364L358.22 598.52L358.143 598.664L358.487 599.041L358.667 599.164L359.065 599.211L359.378 598.855L359.001 597.516L359.465 597.575L359.931 597.79L360.154 597.538L360.517 597.48Z" />
    <path id="vill-10020010002" class="village" data-vill-code="10020010002" data-vill-name="後湖里" data-town-id="I01" data-town-code="10020010" data-town-name="東區" data-county-code="10020" data-county-name="嘉義市" aria-label="嘉義市東區後湖里" fill-rule="evenodd" d="M362.897 598.133L363.067 598.22L363.145 598.499L363.135 598.77L362.848 598.987L362.869 599.273L363.231 600.042L363.666 600.367L364.173 601.235L363.25 601.887L362.92 602.337L362.829 602.064L362.322 602.316L361.824 602.279L361.364 602.39L360.732 601.23L360.394 600.106L359.641 598.767L360.022 598.636L361.143 598.518L362.139 598.167Z" />
    <path id="vill-10020010003" class="village" data-vill-code="10020010003" data-vill-name="仁義里" data-town-id="I01" data-town-code="10020010" data-town-name="東區" data-county-code="10020" data-county-name="嘉義市" aria-label="嘉義市東區仁義里" fill-rule="evenodd" d="M362.267 603.496L362.785 603.788L363.09 604.234L363.007 604.297L363.064 604.557L362.852 604.591L362.992 605.001L362.029 605.109L361.807 603.538Z" />
    <path id="vill-10020010004" class="village" data-vill-code="10020010004" data-vill-name="中庄里" data-town-id="I01" data-town-code="10020010" data-town-name="東區" data-county-code="10020" data-county-name="嘉義市" aria-label="嘉義市東區中庄里" fill-rule="evenodd" d="M361.364 602.39L361.793 603.431L362.029 605.109L361.266 605.196L361.362 604.522L360.61 601.085L360.681 601.063Z" />
    <path id="vill-10020010005" class="village" data-vill-code="10020010005" data-vill-name="頂庄里" data-town-id="I01" data-town-code="10020010" data-town-name="東區" data-county-code="10020" data-county-name="嘉義市" aria-label="嘉義市東區頂庄里" fill-rule="evenodd" d="M364.19 601.272L364.299 601.615L364.296 601.956L364.425 602.242L364.29 602.603L364.369 603.037L364.251 604.274L364.08 604.3L363.998 604.071L363.834 604.188L363.755 604.028L363.616 603.978L363.505 604.049L363.269 604.025L363.09 604.234L362.868 603.874L362.542 603.625L362.673 603.368L362.603 602.878L363.25 601.887Z" />
    <path id="vill-10020010034" class="village" data-vill-code="10020010034" data-vill-name="圳頭里" data-town-id="I01" data-town-code="10020010" data-town-name="東區" data-county-code="10020" data-county-name="嘉義市" aria-label="嘉義市東區圳頭里" fill-rule="evenodd" d="M369.63 603.494L370.047 604.031L369.481 604.167L369.639 604.532L369.883 604.844L369.716 605.714L369.459 606.274L368.438 605.898L367.51 605.779L366.596 605.77L366.567 605.688L366.45 605.696L366.425 605.585L365.574 605.76L365.423 605.576L365.229 605.515L365.858 605.209L366.357 605.368L366.395 605.086L366.154 604.972L366.093 604.773L366.376 604.587L367.651 604.544L368.78 604.346L369.523 603.526Z" />
    <path id="vill-10020010035" class="village" data-vill-code="10020010035" data-vill-name="新店里" data-town-id="I01" data-town-code="10020010" data-town-name="東區" data-county-code="10020" data-county-name="嘉義市" aria-label="嘉義市東區新店里" fill-rule="evenodd" d="M364.426 602.244L364.871 602.692L365.135 602.781L365.383 602.757L365.47 603.095L365.95 603.435L365.965 603.683L365.835 603.963L365.929 604.236L365.809 604.429L365.709 604.87L365.539 605.087L366.093 604.773L366.154 604.972L366.395 605.086L366.357 605.368L365.858 605.209L365.229 605.515L364.896 605.557L365.021 605.289L364.663 605.455L364.435 605.069L364.434 604.902L364.206 604.719L363.905 604.146L363.998 604.071L364.08 604.3L364.251 604.274L364.369 603.037L364.29 602.603Z" />
    <path id="vill-10020010036" class="village" data-vill-code="10020010036" data-vill-name="後庄里" data-town-id="I01" data-town-code="10020010" data-town-name="東區" data-county-code="10020" data-county-name="嘉義市" aria-label="嘉義市東區後庄里" fill-rule="evenodd" d="M367.327 600.592L367.608 600.694L368.253 601.123L368.711 601.274L369.033 601.262L369.521 601.037L369.546 601.249L369.707 601.406L369.695 601.628L369.871 601.974L369.798 602.388L369.857 602.721L369.618 602.916L369.639 603.496L369.523 603.526L368.78 604.346L367.651 604.544L366.376 604.587L365.539 605.087L365.709 604.87L365.809 604.429L365.929 604.236L365.835 603.963L365.965 603.683L365.95 603.435L365.47 603.095L365.383 602.757L365.698 602.75L366.235 602.438L366.449 601.414L366.882 601.042L367.108 600.599Z" />
    <path id="vill-10020010037" class="village" data-vill-code="10020010037" data-vill-name="王田里" data-town-id="I01" data-town-code="10020010" data-town-name="東區" data-county-code="10020" data-county-name="嘉義市" aria-label="嘉義市東區王田里" fill-rule="evenodd" d="M364.635 606.215L364.647 606.14L364.766 606.115L364.663 605.455L365.021 605.289L364.896 605.557L365.376 605.552L365.574 605.76L366.425 605.585L366.45 605.696L366.567 605.688L366.596 605.77L367.51 605.779L367.661 606.098L367.903 606.258L367.721 606.757L366.716 606.666L364.739 606.688Z" />
    <path id="vill-10020010038" class="village" data-vill-code="10020010038" data-vill-name="東川里" data-town-id="I01" data-town-code="10020010" data-town-name="東區" data-county-code="10020" data-county-name="嘉義市" aria-label="嘉義市東區東川里" fill-rule="evenodd" d="M365.362 606.689L366.104 606.702L366.126 606.805L366.294 606.835L366.358 607.11L366.278 607.255L366.314 607.682L366.458 607.8L366.704 607.853L366.813 608.168L366.44 608.101L366.394 608.433L364.58 608.798L364.156 609.204L364.211 608.615L364.658 607.566L364.559 606.708Z" />
    <path id="vill-10020010039" class="village" data-vill-code="10020010039" data-vill-name="太平里" data-town-id="I01" data-town-code="10020010" data-town-name="東區" data-county-code="10020" data-county-name="嘉義市" aria-label="嘉義市東區太平里" fill-rule="evenodd" d="M363.624 603.979L363.755 604.028L363.834 604.188L363.905 604.146L364.206 604.719L364.434 604.902L364.435 605.069L364.684 605.513L364.766 606.115L364.647 606.14L364.679 606.468L363.392 606.592L363.426 606.856L363.142 606.893L363.029 605.983L363.276 605.951L362.908 605.01L362.992 605.001L362.852 604.591L363.064 604.557L363.011 604.282L363.269 604.025L363.505 604.049Z" />
    <path id="vill-10020010041" class="village" data-vill-code="10020010041" data-vill-name="盧厝里" data-town-id="I01" data-town-code="10020010" data-town-name="東區" data-county-code="10020" data-county-name="嘉義市" aria-label="嘉義市東區盧厝里" fill-rule="evenodd" d="M370.054 604.042L370.217 604.236L370.468 604.367L370.533 604.557L370.635 604.614L370.797 604.575L371.034 604.767L371.979 604.809L372.067 604.832L372.224 605.085L372.405 605.109L372.728 605.1L373.381 604.869L373.463 604.968L373.682 604.953L373.812 605.135L373.951 605.16L373.88 605.513L374.097 605.884L374.112 606.124L374.206 606.165L374.277 606.352L374.475 606.365L374.562 606.481L374.461 606.615L374.397 606.952L374.252 607.046L374.267 607.308L374.078 607.368L374.091 607.578L374.647 607.564L374.707 607.735L374.552 608.128L374.937 608.19L375.92 609.217L375.946 609.801L375.766 610.151L375.413 610.047L375.26 610.496L374.84 610.652L374.589 611.26L374.077 611.351L373.865 611.657L373.572 611.762L373.812 612.673L373.745 613.077L373.415 613.015L373.117 612.523L372.853 612.416L372.738 612.16L372.892 611.567L372.78 610.987L372.843 610.586L373.23 609.803L373.193 609.091L372.98 609.054L372.361 609.195L372.41 608.42L371.384 608.5L371.293 608.348L371.164 608.356L370.942 608.216L370.777 608.38L370.68 608.284L370.23 608.306L369.944 608.428L369.804 608.395L369.722 608.535L369.502 608.63L369.278 608.576L369.236 608.204L369.334 608.106L369.377 607.805L370.123 607.728L371.632 607.41L371.192 606.778L370.84 606.517L370.271 606.368L369.722 606.424L369.653 606.299L369.459 606.274L369.716 605.714L369.883 604.844L369.639 604.532L369.481 604.167Z" />
    <path id="vill-10020010042" class="village" data-vill-code="10020010042" data-vill-name="鹿寮里" data-town-id="I01" data-town-code="10020010" data-town-name="東區" data-county-code="10020" data-county-name="嘉義市" aria-label="嘉義市東區鹿寮里" fill-rule="evenodd" d="M372.438 608.448L372.361 609.195L372.98 609.054L373.193 609.091L373.23 609.803L372.91 610.36L372.78 610.987L372.892 611.567L372.764 612.29L372.923 612.467L373.117 612.523L373.415 613.015L373.745 613.077L373.549 613.233L373.312 613.608L373.034 613.787L372.879 614.222L372.909 614.494L372.692 614.649L372.426 615.146L371.347 615.332L371.082 615.301L369.806 614.18L369.19 613.799L368.931 613.291L368.717 613.106L367.875 612.669L366.549 612.7L366.432 612.158L365.83 611.903L365.586 611.491L366.145 611.438L366.269 611.721L366.497 611.501L366.623 611.48L366.791 611.946L367.322 612.148L367.788 612.049L368.233 612.173L368.378 612.074L368.706 612.105L368.941 611.869L368.774 611.816L369.174 611.422L369.103 611.083L369.154 610.821L369.5 610.444L369.656 609.815L369.799 609.617L369.958 609.542L369.993 609.406L370.105 609.375L370.183 609.182L370.383 609.198L370.608 609.085L371.124 609.211L371.295 608.947L371.212 608.822L371.233 608.688L371.384 608.5Z" />
    <path id="vill-10020010043" class="village" data-vill-code="10020010043" data-vill-name="長竹里" data-town-id="I01" data-town-code="10020010" data-town-name="東區" data-county-code="10020" data-county-name="嘉義市" aria-label="嘉義市東區長竹里" fill-rule="evenodd" d="M367.976 605.834L368.764 605.975L369.366 606.261L369.608 606.293L369.503 606.798L369.519 607.189L369.211 607.392L369.377 607.805L369.331 608.113L369.251 608.254L368.893 607.978L368.591 608.111L368.261 608.756L368.208 609.309L368.077 609.601L366.809 609.225L366.262 608.72L366.232 608.779L365.706 608.54L366.394 608.433L366.44 608.101L366.813 608.168L366.704 607.853L366.458 607.8L366.314 607.682L366.278 607.255L366.358 607.11L366.294 606.835L366.126 606.805L366.104 606.702L366.716 606.666L367.721 606.757L367.903 606.258L367.661 606.098L367.51 605.779Z" />
    <path id="vill-10020010044" class="village" data-vill-code="10020010044" data-vill-name="短竹里" data-town-id="I01" data-town-code="10020010" data-town-name="東區" data-county-code="10020" data-county-name="嘉義市" aria-label="嘉義市東區短竹里" fill-rule="evenodd" d="M365.395 608.694L365.131 609.129L365.128 609.269L365.456 609.402L366.032 610.44L366.041 610.849L365.861 611.466L365.586 611.491L364.294 609.216L364.198 609.2L364.4 608.911L364.58 608.798L365.383 608.611Z" />
    <path id="vill-10020010045" class="village" data-vill-code="10020010045" data-vill-name="新開里" data-town-id="I01" data-town-code="10020010" data-town-name="東區" data-county-code="10020" data-county-name="嘉義市" aria-label="嘉義市東區新開里" fill-rule="evenodd" d="M364.294 609.216L365.19 610.794L363.915 610.925L363.323 610.217L363.241 609.295Z" />
    <path id="vill-10020010046" class="village" data-vill-code="10020010046" data-vill-name="宣信里" data-town-id="I01" data-town-code="10020010" data-town-name="東區" data-county-code="10020" data-county-name="嘉義市" aria-label="嘉義市東區宣信里" fill-rule="evenodd" d="M363.748 610.721L363.083 610.791L362.929 609.326L363.241 609.295L363.323 610.217Z" />
    <path id="vill-10020010047" class="village" data-vill-code="10020010047" data-vill-name="興南里" data-town-id="I01" data-town-code="10020010" data-town-name="東區" data-county-code="10020" data-county-name="嘉義市" aria-label="嘉義市東區興南里" fill-rule="evenodd" d="M363.074 610.625L362.384 610.697L362.256 609.392L362.929 609.326Z" />
    <path id="vill-10020010048" class="village" data-vill-code="10020010048" data-vill-name="豐年里" data-town-id="I01" data-town-code="10020010" data-town-name="東區" data-county-code="10020" data-county-name="嘉義市" aria-label="嘉義市東區豐年里" fill-rule="evenodd" d="M362.004 609.417L362.256 609.392L362.384 610.697L361.225 610.816L361.182 610.431L361.758 610.371L361.75 610.236L361.837 610.133L361.765 609.44Z" />
    <path id="vill-10020010049" class="village" data-vill-code="10020010049" data-vill-name="芳草里" data-town-id="I01" data-town-code="10020010" data-town-name="東區" data-county-code="10020" data-county-name="嘉義市" aria-label="嘉義市東區芳草里" fill-rule="evenodd" d="M365.191 610.795L365.83 611.903L366.432 612.158L366.549 612.7L364.908 612.837L364.85 612.169L364.725 612.03L364.656 611.692L364.388 611.5L363.915 610.925Z" />
    <path id="vill-10020010050" class="village" data-vill-code="10020010050" data-vill-name="芳安里" data-town-id="I01" data-town-code="10020010" data-town-name="東區" data-county-code="10020" data-county-name="嘉義市" aria-label="嘉義市東區芳安里" fill-rule="evenodd" d="M363.915 610.925L364.388 611.5L364.656 611.692L364.725 612.03L364.85 612.169L364.908 612.837L364.286 612.815L364.192 612.621L364.254 612.092L364.417 612.008L364.263 611.982L364.223 611.753L364.047 611.56L363.963 611.576L363.959 611.402L363.458 611.457L363.094 611.013L363.083 610.791L363.748 610.721Z" />
    <path id="vill-10020010051" class="village" data-vill-code="10020010051" data-vill-name="頂寮里" data-town-id="I01" data-town-code="10020010" data-town-name="東區" data-county-code="10020" data-county-name="嘉義市" aria-label="嘉義市東區頂寮里" fill-rule="evenodd" d="M363.109 611.037L363.458 611.457L363.959 611.402L363.963 611.576L364.047 611.56L364.223 611.753L364.263 611.982L364.417 612.008L364.254 612.092L364.192 612.621L364.297 612.87L364.17 612.841L363.748 613.081L363.473 612.387L363.105 612.527L363.077 611.963L363.171 611.598L363.037 611.25Z" />
    <path id="vill-10020010052" class="village" data-vill-code="10020010052" data-vill-name="安寮里" data-town-id="I01" data-town-code="10020010" data-town-name="東區" data-county-code="10020" data-county-name="嘉義市" aria-label="嘉義市東區安寮里" fill-rule="evenodd" d="M363.079 610.719L363.05 611.415L363.144 611.466L363.171 611.598L363.077 611.963L363.105 612.527L363.473 612.387L363.748 613.081L363.495 613.282L363.453 613.459L363.301 613.606L363.086 612.987L362.523 611.873L362.384 610.697L363.074 610.625Z" />
    <path id="vill-10020010053" class="village" data-vill-code="10020010053" data-vill-name="興安里" data-town-id="I01" data-town-code="10020010" data-town-name="東區" data-county-code="10020" data-county-name="嘉義市" aria-label="嘉義市東區興安里" fill-rule="evenodd" d="M363.206 613.33L363.306 613.622L362.916 614.178L362.523 614.413L362.32 614.347L362.06 614.517L361.954 614.505L361.913 614.74L361.736 614.941L361.67 615.491L360.826 614.853L360.583 614.561L360.624 612.745L360.957 612.804L361.746 612.526L361.819 612.896L362.193 612.916L362.179 613.177L363.125 613.395Z" />
    <path id="vill-10020010054" class="village" data-vill-code="10020010054" data-vill-name="興村里" data-town-id="I01" data-town-code="10020010" data-town-name="東區" data-county-code="10020" data-county-name="嘉義市" aria-label="嘉義市東區興村里" fill-rule="evenodd" d="M363.684 614.731L363.531 614.775L363.118 615.139L363.191 615.248L363.004 615.331L362.668 615.803L362.476 615.82L362.45 616.358L362.021 617.288L361.723 617.512L361.225 617.677L361.376 617.558L361.401 617.162L361.533 616.935L361.494 616.298L361.699 615.537L361.678 615.15L361.742 614.923L361.913 614.74L361.954 614.505L362.06 614.517L362.32 614.347L362.501 614.419L362.775 614.288L363.306 613.622Z" />
    <path id="vill-10020010055" class="village" data-vill-code="10020010055" data-vill-name="興仁里" data-town-id="I01" data-town-code="10020010" data-town-name="東區" data-county-code="10020" data-county-name="嘉義市" aria-label="嘉義市東區興仁里" fill-rule="evenodd" d="M365.913 612.783L364.901 613.672L364.895 614.394L364.598 614.477L364.043 614.468L363.854 614.685L363.684 614.731L363.301 613.606L363.453 613.459L363.53 613.245L364.17 612.841L364.297 612.87L364.407 612.772L365.184 612.862Z" />
    <path id="vill-10020010056" class="village" data-vill-code="10020010056" data-vill-name="過溝里" data-town-id="I01" data-town-code="10020010" data-town-name="東區" data-county-code="10020" data-county-name="嘉義市" aria-label="嘉義市東區過溝里" fill-rule="evenodd" d="M362.256 609.392L361.379 609.479L361.282 608.509L362.164 608.421Z" />
    <path id="vill-10020010057" class="village" data-vill-code="10020010057" data-vill-name="民族里" data-town-id="I01" data-town-code="10020010" data-town-name="東區" data-county-code="10020" data-county-name="嘉義市" aria-label="嘉義市東區民族里" fill-rule="evenodd" d="M362.897 608.337L362.951 608.74L362.777 608.757L362.826 609.336L362.256 609.392L362.114 608.038L362.844 607.943Z" />
    <path id="vill-10020010058" class="village" data-vill-code="10020010058" data-vill-name="朝陽里" data-town-id="I01" data-town-code="10020010" data-town-name="東區" data-county-code="10020" data-county-name="嘉義市" aria-label="嘉義市東區朝陽里" fill-rule="evenodd" d="M364.203 608.687L364.156 609.204L362.826 609.336L362.777 608.757L364.211 608.615Z" />
    <path id="vill-10020010059" class="village" data-vill-code="10020010059" data-vill-name="華南里" data-town-id="I01" data-town-code="10020010" data-town-name="東區" data-county-code="10020" data-county-name="嘉義市" aria-label="嘉義市東區華南里" fill-rule="evenodd" d="M364.658 607.566L364.211 608.615L362.951 608.74L362.822 607.763Z" />
    <path id="vill-10020010060" class="village" data-vill-code="10020010060" data-vill-name="東興里" data-town-id="I01" data-town-code="10020010" data-town-name="東區" data-county-code="10020" data-county-name="嘉義市" aria-label="嘉義市東區東興里" fill-rule="evenodd" d="M364.664 607.528L362.822 607.763L362.844 607.943L362.114 608.038L362.026 607.466L364.61 607.104Z" />
    <path id="vill-10020010061" class="village" data-vill-code="10020010061" data-vill-name="中山里" data-town-id="I01" data-town-code="10020010" data-town-name="東區" data-county-code="10020" data-county-name="嘉義市" aria-label="嘉義市東區中山里" fill-rule="evenodd" d="M364.679 606.468L364.739 606.688L364.559 606.708L364.61 607.104L362.026 607.466L361.921 607.077L363.426 606.856L363.392 606.592Z" />
    <path id="vill-10020010062" class="village" data-vill-code="10020010062" data-vill-name="中央里" data-town-id="I01" data-town-code="10020010" data-town-name="東區" data-county-code="10020" data-county-name="嘉義市" aria-label="嘉義市東區中央里" fill-rule="evenodd" d="M362.026 607.466L362.164 608.421L361.282 608.509L361.091 607.248L361.921 607.077Z" />
    <path id="vill-10020010063" class="village" data-vill-code="10020010063" data-vill-name="林森里" data-town-id="I01" data-town-code="10020010" data-town-name="東區" data-county-code="10020" data-county-name="嘉義市" aria-label="嘉義市東區林森里" fill-rule="evenodd" d="M363.05 605.462L363.276 605.951L363.029 605.983L363.142 606.893L362.272 607.006L362.029 605.109L362.908 605.01Z" />
    <path id="vill-10020010064" class="village" data-vill-code="10020010064" data-vill-name="北門里" data-town-id="I01" data-town-code="10020010" data-town-name="東區" data-county-code="10020" data-county-name="嘉義市" aria-label="嘉義市東區北門里" fill-rule="evenodd" d="M362.272 607.006L361.091 607.248L360.946 606.584L360.719 606.046L361.253 605.197L362.029 605.109Z" />
    <path id="vill-10020010065" class="village" data-vill-code="10020010065" data-vill-name="蘭潭里" data-town-id="I01" data-town-code="10020010" data-town-name="東區" data-county-code="10020" data-county-name="嘉義市" aria-label="嘉義市東區蘭潭里" fill-rule="evenodd" d="M368.893 607.978L369.251 608.254L369.278 608.576L369.364 608.625L369.714 608.541L369.812 608.391L369.944 608.428L370.23 608.306L370.68 608.284L370.777 608.38L370.932 608.215L371.164 608.356L371.293 608.348L371.384 608.5L371.233 608.688L371.212 608.822L371.295 608.947L371.127 609.209L370.643 609.086L370.383 609.198L370.22 609.161L369.948 609.554L369.781 609.64L369.647 609.833L369.5 610.444L369.154 610.821L369.103 611.083L369.158 611.458L368.774 611.816L368.941 611.869L368.893 611.977L368.679 612.114L368.378 612.074L368.233 612.173L367.812 612.048L367.322 612.148L366.791 611.946L366.623 611.48L366.497 611.501L366.269 611.721L366.145 611.438L365.861 611.466L366.041 610.849L366.032 610.44L365.456 609.402L365.128 609.269L365.383 608.611L365.706 608.54L366.232 608.779L366.262 608.72L366.809 609.225L368.077 609.601L368.208 609.309L368.261 608.756L368.456 608.307L368.648 608.055Z" />
    <path id="vill-10020010066" class="village" data-vill-code="10020010066" data-vill-name="文雅里" data-town-id="I01" data-town-code="10020010" data-town-name="東區" data-county-code="10020" data-county-name="嘉義市" aria-label="嘉義市東區文雅里" fill-rule="evenodd" d="M369.653 606.299L369.722 606.424L370.479 606.395L370.977 606.592L371.369 606.991L371.632 607.41L370.123 607.728L369.348 607.808L369.211 607.392L369.519 607.189L369.503 606.798Z" />
    <path id="vill-10020010067" class="village" data-vill-code="10020010067" data-vill-name="安業里" data-town-id="I01" data-town-code="10020010" data-town-name="東區" data-county-code="10020" data-county-name="嘉義市" aria-label="嘉義市東區安業里" fill-rule="evenodd" d="M363.206 613.33L363.125 613.395L362.179 613.177L362.193 612.916L361.819 612.896L361.225 610.816L362.384 610.697L362.523 611.873Z" />
    <path id="vill-10020010068" class="village" data-vill-code="10020010068" data-vill-name="義教里" data-town-id="I01" data-town-code="10020010" data-town-name="東區" data-county-code="10020" data-county-name="嘉義市" aria-label="嘉義市東區義教里" fill-rule="evenodd" d="M362.852 602.144L362.92 602.337L362.603 602.878L362.673 603.368L362.542 603.625L362.328 603.502L361.807 603.538L361.364 602.39L361.824 602.279L362.322 602.316L362.731 602.08L362.829 602.064Z" />
    <path id="vill-10020020001" class="village" data-vill-code="10020020001" data-vill-name="香湖里" data-town-id="I02" data-town-code="10020020" data-town-name="西區" data-county-code="10020" data-county-name="嘉義市" aria-label="嘉義市西區香湖里" fill-rule="evenodd" d="M360.954 602.637L361.362 604.522L361.331 604.928L361.266 605.196L360.361 605.299L359.741 603.648L359.372 602.986L360.143 601.343L360.384 601.129L360.615 601.11Z" />
    <path id="vill-10020020002" class="village" data-vill-code="10020020002" data-vill-name="湖邊里" data-town-id="I02" data-town-code="10020020" data-town-name="西區" data-county-code="10020" data-county-name="嘉義市" aria-label="嘉義市西區湖邊里" fill-rule="evenodd" d="M359.777 603.75L360.453 605.442L359.933 605.846L359.766 606.066L359.501 605.805L359.615 605.525L359.392 603.79Z" />
    <path id="vill-10020020003" class="village" data-vill-code="10020020003" data-vill-name="北榮里" data-town-id="I02" data-town-code="10020020" data-town-name="西區" data-county-code="10020" data-county-name="嘉義市" aria-label="嘉義市西區北榮里" fill-rule="evenodd" d="M361.235 605.26L360.984 605.707L360.331 606.508L360.15 606.51L359.959 605.857L360.453 605.442L360.361 605.299L361.253 605.197Z" />
    <path id="vill-10020020005" class="village" data-vill-code="10020020005" data-vill-name="重興里" data-town-id="I02" data-town-code="10020020" data-town-name="西區" data-county-code="10020" data-county-name="嘉義市" aria-label="嘉義市西區重興里" fill-rule="evenodd" d="M359.615 605.525L359.501 605.805L359.764 606.065L359.247 606.746L358.272 606.213L359.137 605.511L359.142 605.42L359.602 605.374Z" />
    <path id="vill-10020020009" class="village" data-vill-code="10020020009" data-vill-name="竹圍里" data-town-id="I02" data-town-code="10020020" data-town-name="西區" data-county-code="10020" data-county-name="嘉義市" aria-label="嘉義市西區竹圍里" fill-rule="evenodd" d="M357.097 605.507L358.911 606.565L358.278 607.402L357.944 607.153L356.649 607.273L356.559 606.455L356.818 606.424L356.781 605.4L356.864 605.351Z" />
    <path id="vill-10020020010" class="village" data-vill-code="10020020010" data-vill-name="新厝里" data-town-id="I02" data-town-code="10020020" data-town-name="西區" data-county-code="10020" data-county-name="嘉義市" aria-label="嘉義市西區新厝里" fill-rule="evenodd" d="M359.418 603.965L359.602 605.374L358.595 605.471L358.512 604.754L358.352 604.769L358.262 603.906L359.392 603.79Z" />
    <path id="vill-10020020011" class="village" data-vill-code="10020020011" data-vill-name="保安里" data-town-id="I02" data-town-code="10020020" data-town-name="西區" data-county-code="10020" data-county-name="嘉義市" aria-label="嘉義市西區保安里" fill-rule="evenodd" d="M356.051 603.786L356.761 604.06L356.573 604.267L357.768 605.258L357.653 605.398L357.72 605.91L356.864 605.351L356.47 605.501L356.366 604.524L355.494 605.561L355.269 605.483L355.624 604.787L356.214 604.191L355.877 603.927Z" />
    <path id="vill-10020020012" class="village" data-vill-code="10020020012" data-vill-name="北湖里" data-town-id="I02" data-town-code="10020020" data-town-name="西區" data-county-code="10020" data-county-name="嘉義市" aria-label="嘉義市西區北湖里" fill-rule="evenodd" d="M355.538 600.811L355.665 601.024L355.668 601.229L355.224 601.685L355.202 601.856L356.018 603.758L355.877 603.927L356.214 604.191L355.624 604.787L355.271 605.404L355.269 605.483L355.494 605.561L354.575 606.64L353.569 606.3L353.398 605.283L352.235 601.914L353.169 600.978L354.156 600.811L354.561 600.824L354.671 600.746L355.031 600.768L355.148 600.708L355.298 600.454Z" />
    <path id="vill-10020020013" class="village" data-vill-code="10020020013" data-vill-name="下埤里" data-town-id="I02" data-town-code="10020020" data-town-name="西區" data-county-code="10020" data-county-name="嘉義市" aria-label="嘉義市西區下埤里" fill-rule="evenodd" d="M353.398 605.283L353.569 606.3L350.146 605.164L350.176 603.894L350.28 603.324L350.87 603.052L351.074 602.863L351.354 602.861L351.985 602.683L352.235 601.914Z" />
    <path id="vill-10020020014" class="village" data-vill-code="10020020014" data-vill-name="竹村里" data-town-id="I02" data-town-code="10020020" data-town-name="西區" data-county-code="10020" data-county-name="嘉義市" aria-label="嘉義市西區竹村里" fill-rule="evenodd" d="M351.001 601.262L350.924 601.831L351.072 602.919L350.28 603.324L350.176 603.894L350.146 605.164L348.74 604.703L348.755 605.236L348.835 605.259L348.918 605.638L347.952 605.32L347.506 605.788L347.49 605.418L347.684 604.934L346.467 604.771L346.318 604.169L346.321 603.21L346.499 603.1L346.509 602.996L346.358 602.806L346.556 602.588L346.992 602.333L347.673 602.228L348.805 602.775L349.036 602.777L349.049 602.407L349.234 601.938L349.929 601.436L350.448 601.402L351.157 600.673Z" />
    <path id="vill-10020020015" class="village" data-vill-code="10020020015" data-vill-name="大溪里" data-town-id="I02" data-town-code="10020020" data-town-name="西區" data-county-code="10020" data-county-name="嘉義市" aria-label="嘉義市西區大溪里" fill-rule="evenodd" d="M348.897 604.754L354.575 606.64L354.007 607.562L353.873 608.012L353.571 608.069L353.358 607.959L353.015 607.989L352.473 608.226L352.281 608.227L352.178 608.444L351.463 608.419L351.181 608.492L351.08 608.6L351.042 608.868L350.332 608.193L349.972 608.048L349.574 608.078L348.843 607.661L348.63 607.639L348.234 607.774L348.224 607.709L347.609 607.621L347.498 607.286L347.541 607.241L347.367 607.188L347.359 606.537L347.419 606.157L347.524 605.985L347.506 605.788L347.952 605.32L348.918 605.638L348.72 604.942L348.74 604.703Z" />
    <path id="vill-10020020016" class="village" data-vill-code="10020020016" data-vill-name="福全里" data-town-id="I02" data-town-code="10020020" data-town-name="西區" data-county-code="10020" data-county-name="嘉義市" aria-label="嘉義市西區福全里" fill-rule="evenodd" d="M358.278 607.402L357.696 608.172L358.468 608.775L358.112 609.218L357.795 609.205L357.508 609.003L357.406 609.122L357.153 608.833L355.984 608.339L356.649 607.273L357.944 607.153Z" />
    <path id="vill-10020020017" class="village" data-vill-code="10020020017" data-vill-name="西平里" data-town-id="I02" data-town-code="10020020" data-town-name="西區" data-county-code="10020" data-county-name="嘉義市" aria-label="嘉義市西區西平里" fill-rule="evenodd" d="M355.215 607.995L357.153 608.833L357.406 609.122L357.508 609.003L357.795 609.205L358.112 609.218L355.864 611.875L354.581 610.781L354.369 610.228L357.013 609.586L357.275 609.277L356.415 608.754L355.843 608.567L355.251 608.713L355.108 608.089L355.153 607.961Z" />
    <path id="vill-10020020018" class="village" data-vill-code="10020020018" data-vill-name="磚[磘]里" data-town-id="I02" data-town-code="10020020" data-town-name="西區" data-county-code="10020" data-county-name="嘉義市" aria-label="嘉義市西區磚[磘]里" fill-rule="evenodd" d="M356.021 608.62L356.415 608.754L357.275 609.277L357.013 609.586L355.017 610.07L354.725 608.842L355.843 608.567Z" />
    <path id="vill-10020020019" class="village" data-vill-code="10020020019" data-vill-name="港坪里" data-town-id="I02" data-town-code="10020020" data-town-name="西區" data-county-code="10020" data-county-name="嘉義市" aria-label="嘉義市西區港坪里" fill-rule="evenodd" d="M354.288 607.383L355.153 607.961L355.111 608.13L355.251 608.713L354.725 608.842L355.017 610.07L352.361 610.708L352.109 610.251L352.195 609.705L351.992 609.694L351.988 608.455L352.178 608.444L352.281 608.227L352.473 608.226L353.015 607.989L353.358 607.959L353.571 608.069L353.873 608.012L353.916 607.757L354.187 607.273Z" />
    <path id="vill-10020020020" class="village" data-vill-code="10020020020" data-vill-name="頭港里" data-town-id="I02" data-town-code="10020020" data-town-name="西區" data-county-code="10020" data-county-name="嘉義市" aria-label="嘉義市西區頭港里" fill-rule="evenodd" d="M348.758 607.645L349.574 608.078L349.972 608.048L350.406 608.23L351.042 608.868L351.08 608.6L351.181 608.492L351.463 608.419L351.988 608.455L351.992 609.694L352.195 609.705L352.109 610.251L352.361 610.708L352.012 610.76L352.019 611.632L351.949 611.973L351.642 611.928L351.233 612.067L350.991 612.037L350.806 612.178L350.242 612.294L349.446 612.294L348.289 612.516L347.549 612.534L347.575 611.473L347.821 611.206L348.158 611.128L348.467 610.451L348.807 610.232L348.617 609.441L348.691 608.993L348.612 608.916L348.707 608.728L348.622 608.689L348.756 608.254L348.634 608.194L348.507 607.953L348.338 608.007L348.218 607.953L348.234 607.774Z" />
    <path id="vill-10020020021" class="village" data-vill-code="10020020021" data-vill-name="劉厝里" data-town-id="I02" data-town-code="10020020" data-town-name="西區" data-county-code="10020" data-county-name="嘉義市" aria-label="嘉義市西區劉厝里" fill-rule="evenodd" d="M354.418 610.425L354.581 610.781L355.864 611.875L355.014 612.899L354.926 612.846L354.446 612.961L354.299 612.922L352.723 613.139L352.236 612.657L352.198 612.228L351.949 611.973L352.019 611.632L352.012 610.76L354.369 610.228Z" />
    <path id="vill-10020020022" class="village" data-vill-code="10020020022" data-vill-name="新西里" data-town-id="I02" data-town-code="10020020" data-town-name="西區" data-county-code="10020" data-county-name="嘉義市" aria-label="嘉義市西區新西里" fill-rule="evenodd" d="M357.895 609.499L358.346 609.777L358.384 610.341L358.111 610.372L358.124 610.492L357.807 610.541L357.461 610.969L356.949 610.563Z" />
    <path id="vill-10020020031" class="village" data-vill-code="10020020031" data-vill-name="書院里" data-town-id="I02" data-town-code="10020020" data-town-name="西區" data-county-code="10020" data-county-name="嘉義市" aria-label="嘉義市西區書院里" fill-rule="evenodd" d="M359.886 608.187L359.969 609.031L358.112 609.218L359.03 608.062L359.228 608.22L359.388 608.032L359.866 607.984Z" />
    <path id="vill-10020020045" class="village" data-vill-code="10020020045" data-vill-name="培元里" data-town-id="I02" data-town-code="10020020" data-town-name="西區" data-county-code="10020" data-county-name="嘉義市" aria-label="嘉義市西區培元里" fill-rule="evenodd" d="M360.032 609.636L360.113 610.436L359.53 610.497L359.452 609.669Z" />
    <path id="vill-10020020046" class="village" data-vill-code="10020020046" data-vill-name="垂楊里" data-town-id="I02" data-town-code="10020020" data-town-name="西區" data-county-code="10020" data-county-name="嘉義市" aria-label="嘉義市西區垂楊里" fill-rule="evenodd" d="M359.467 609.824L359.502 610.215L359.21 610.227L358.798 610.4L358.865 611.06L358.553 611.093L358.434 610.661L358.497 610.474L358.393 610.475L358.346 609.777L359.452 609.669Z" />
    <path id="vill-10020020047" class="village" data-vill-code="10020020047" data-vill-name="車店里" data-town-id="I02" data-town-code="10020020" data-town-name="西區" data-county-code="10020" data-county-name="嘉義市" aria-label="嘉義市西區車店里" fill-rule="evenodd" d="M358.393 610.475L358.497 610.474L358.434 610.661L358.553 611.093L357.825 611.17L357.88 611.725L357.651 611.742L357.255 612.037L356.93 611.63L356.382 612.311L355.864 611.875L356.949 610.563L357.461 610.969L357.807 610.541L358.124 610.492L358.111 610.372L358.384 610.341Z" />
    <path id="vill-10020020048" class="village" data-vill-code="10020020048" data-vill-name="福民里" data-town-id="I02" data-town-code="10020020" data-town-name="西區" data-county-code="10020" data-county-name="嘉義市" aria-label="嘉義市西區福民里" fill-rule="evenodd" d="M358.866 611.067L359.041 612.769L357.193 612.92L356.382 612.311L356.93 611.63L357.255 612.037L357.651 611.742L357.88 611.725L357.825 611.17Z" />
    <path id="vill-10020020049" class="village" data-vill-code="10020020049" data-vill-name="湖內里" data-town-id="I02" data-town-code="10020020" data-town-name="西區" data-county-code="10020" data-county-name="嘉義市" aria-label="嘉義市西區湖內里" fill-rule="evenodd" d="M359.718 614.308L359.661 614.532L359.902 614.442L360.03 614.567L359.971 614.761L360.574 614.782L360.583 614.561L360.826 614.853L361.67 615.491L361.494 616.298L361.533 616.935L361.401 617.162L361.376 617.558L361.225 617.677L360.971 617.619L360.605 617.682L359.259 618.554L358.743 618.718L358.624 618.482L358.561 618.486L358.532 618.275L358.178 617.99L358.022 617.676L357.827 617.633L357.852 617.469L358.413 617.304L358.493 617.061L358.364 616.839L358.096 616.851L357.867 616.402L357.653 616.2L357.483 615.72L357.085 615.876L356.681 615.478L358.385 613.789L358.829 614.159Z" />
    <path id="vill-10020020050" class="village" data-vill-code="10020020050" data-vill-name="美源里" data-town-id="I02" data-town-code="10020020" data-town-name="西區" data-county-code="10020" data-county-name="嘉義市" aria-label="嘉義市西區美源里" fill-rule="evenodd" d="M361.742 612.522L360.957 612.804L360.64 612.751L360.614 612.622L359.041 612.769L358.908 611.463L359.515 611.52L359.61 611.259L359.58 610.991L361.225 610.816Z" />
    <path id="vill-10020020051" class="village" data-vill-code="10020020051" data-vill-name="育英里" data-town-id="I02" data-town-code="10020020" data-town-name="西區" data-county-code="10020" data-county-name="嘉義市" aria-label="嘉義市西區育英里" fill-rule="evenodd" d="M361.225 610.816L360.501 610.892L360.622 610.513L360.6 610.136L361.148 610.052L361.094 609.508L361.768 609.44L361.837 610.133L361.75 610.236L361.758 610.371L361.182 610.431Z" />
    <path id="vill-10020020052" class="village" data-vill-code="10020020052" data-vill-name="致遠里" data-town-id="I02" data-town-code="10020020" data-town-name="西區" data-county-code="10020" data-county-name="嘉義市" aria-label="嘉義市西區致遠里" fill-rule="evenodd" d="M360.625 610.395L360.501 610.892L359.878 610.957L359.828 610.466Z" />
    <path id="vill-10020020053" class="village" data-vill-code="10020020053" data-vill-name="光路里" data-town-id="I02" data-town-code="10020020" data-town-name="西區" data-county-code="10020" data-county-name="嘉義市" aria-label="嘉義市西區光路里" fill-rule="evenodd" d="M360.64 612.751L360.574 614.782L359.971 614.761L360.03 614.567L359.902 614.442L359.661 614.532L359.762 614.163L359.713 613.423L358.204 613.609L358.05 613.327L357.994 612.866L360.614 612.622Z" />
    <path id="vill-10020020054" class="village" data-vill-code="10020020054" data-vill-name="翠岱里" data-town-id="I02" data-town-code="10020020" data-town-name="西區" data-county-code="10020" data-county-name="嘉義市" aria-label="嘉義市西區翠岱里" fill-rule="evenodd" d="M359.842 610.6L359.878 610.957L359.225 611.03L359.181 610.65L359.542 610.615L359.53 610.497L359.828 610.466Z" />
    <path id="vill-10020020055" class="village" data-vill-code="10020020055" data-vill-name="自強里" data-town-id="I02" data-town-code="10020020" data-town-name="西區" data-county-code="10020" data-county-name="嘉義市" aria-label="嘉義市西區自強里" fill-rule="evenodd" d="M359.502 610.216L359.542 610.615L359.181 610.65L359.225 611.03L359.58 610.991L359.61 611.259L359.515 611.52L358.908 611.463L358.798 610.4L359.21 610.227Z" />
    <path id="vill-10020020056" class="village" data-vill-code="10020020056" data-vill-name="永和里" data-town-id="I02" data-town-code="10020020" data-town-name="西區" data-county-code="10020" data-county-name="嘉義市" aria-label="嘉義市西區永和里" fill-rule="evenodd" d="M359.422 609.365L359.452 609.669L358.359 609.777L358.203 609.746L357.895 609.499L358.112 609.218L359.395 609.087Z" />
    <path id="vill-10020020057" class="village" data-vill-code="10020020057" data-vill-name="新富里" data-town-id="I02" data-town-code="10020020" data-town-name="西區" data-county-code="10020" data-county-name="嘉義市" aria-label="嘉義市西區新富里" fill-rule="evenodd" d="M360.764 609.015L360.812 609.536L359.452 609.669L359.395 609.087L360.758 608.954Z" />
    <path id="vill-10020020058" class="village" data-vill-code="10020020058" data-vill-name="文化里" data-town-id="I02" data-town-code="10020020" data-town-name="西區" data-county-code="10020" data-county-name="嘉義市" aria-label="嘉義市西區文化里" fill-rule="evenodd" d="M361.221 607.851L361.379 609.479L360.812 609.536L360.656 607.907Z" />
    <path id="vill-10020020059" class="village" data-vill-code="10020020059" data-vill-name="西榮里" data-town-id="I02" data-town-code="10020020" data-town-name="西區" data-county-code="10020" data-county-name="嘉義市" aria-label="嘉義市西區西榮里" fill-rule="evenodd" d="M360.68 608.15L360.758 608.954L359.969 609.031L359.866 607.984L360.656 607.907Z" />
    <path id="vill-10020020060" class="village" data-vill-code="10020020060" data-vill-name="國華里" data-town-id="I02" data-town-code="10020020" data-town-name="西區" data-county-code="10020" data-county-name="嘉義市" aria-label="嘉義市西區國華里" fill-rule="evenodd" d="M361.091 607.248L361.221 607.851L360.656 607.907L360.597 607.297L360.323 607.326L360.291 606.993L360.084 607.202L359.871 607.034L360.721 606.037L360.946 606.584Z" />
    <path id="vill-10020020061" class="village" data-vill-code="10020020061" data-vill-name="番社里" data-town-id="I02" data-town-code="10020020" data-town-name="西區" data-county-code="10020" data-county-name="嘉義市" aria-label="嘉義市西區番社里" fill-rule="evenodd" d="M360.304 607.131L360.323 607.326L360.597 607.297L360.656 607.907L359.388 608.032L359.228 608.22L359.03 608.062L359.871 607.034L360.084 607.202L360.291 606.993Z" />
    <path id="vill-10020020062" class="village" data-vill-code="10020020062" data-vill-name="導明里" data-town-id="I02" data-town-code="10020020" data-town-name="西區" data-county-code="10020" data-county-name="嘉義市" aria-label="嘉義市西區導明里" fill-rule="evenodd" d="M361.111 609.667L361.148 610.052L360.6 610.136L360.624 610.387L360.113 610.436L360.029 609.612L361.094 609.508Z" />
    <path id="vill-10020020063" class="village" data-vill-code="10020020063" data-vill-name="慶安里" data-town-id="I02" data-town-code="10020020" data-town-name="西區" data-county-code="10020" data-county-name="嘉義市" aria-label="嘉義市西區慶安里" fill-rule="evenodd" d="M359.953 605.862L360.15 606.51L360.331 606.508L359.871 607.034L359.247 606.746Z" />
    <path id="vill-10020020064" class="village" data-vill-code="10020020064" data-vill-name="後驛里" data-town-id="I02" data-town-code="10020020" data-town-name="西區" data-county-code="10020" data-county-name="嘉義市" aria-label="嘉義市西區後驛里" fill-rule="evenodd" d="M358.913 606.566L359.871 607.034L358.468 608.775L357.696 608.172Z" />
    <path id="vill-10020020065" class="village" data-vill-code="10020020065" data-vill-name="福安里" data-town-id="I02" data-town-code="10020020" data-town-name="西區" data-county-code="10020" data-county-name="嘉義市" aria-label="嘉義市西區福安里" fill-rule="evenodd" d="M355.715 605.511L355.86 606.826L356.594 606.754L356.649 607.273L355.984 608.339L355.479 608.163L354.479 607.535L354.187 607.273L354.575 606.64L355.614 605.419Z" />
    <path id="vill-10020020066" class="village" data-vill-code="10020020066" data-vill-name="獅子里" data-town-id="I02" data-town-code="10020020" data-town-name="西區" data-county-code="10020" data-county-name="嘉義市" aria-label="嘉義市西區獅子里" fill-rule="evenodd" d="M359.714 613.428L359.718 614.308L358.829 614.159L358.385 613.789L358.594 613.58Z" />
    <path id="vill-10020020067" class="village" data-vill-code="10020020067" data-vill-name="紅瓦里" data-town-id="I02" data-town-code="10020020" data-town-name="西區" data-county-code="10020" data-county-name="嘉義市" aria-label="嘉義市西區紅瓦里" fill-rule="evenodd" d="M356.041 612.024L357.09 612.885L357.994 612.866L358.146 613.545L358.204 613.609L358.594 613.58L356.681 615.478L356.422 615.285L356.209 612.933L355.407 613.012L355.014 612.899L355.864 611.875Z" />
    <path id="vill-10020020068" class="village" data-vill-code="10020020068" data-vill-name="保福里" data-town-id="I02" data-town-code="10020020" data-town-name="西區" data-county-code="10020" data-county-name="嘉義市" aria-label="嘉義市西區保福里" fill-rule="evenodd" d="M356.441 605.227L356.47 605.501L356.781 605.4L356.818 606.424L356.559 606.455L356.594 606.754L355.86 606.826L355.741 605.557L355.614 605.419L356.366 604.524Z" />
    <path id="vill-10020020069" class="village" data-vill-code="10020020069" data-vill-name="保生里" data-town-id="I02" data-town-code="10020020" data-town-name="西區" data-county-code="10020" data-county-name="嘉義市" aria-label="嘉義市西區保生里" fill-rule="evenodd" d="M358.282 604.1L358.352 604.769L358.512 604.754L358.595 605.471L359.142 605.42L359.153 605.482L358.272 606.213L357.72 605.91L357.653 605.398L357.768 605.258L356.573 604.267L356.761 604.06L358.262 603.906Z" />
    <path id="vill-10020020070" class="village" data-vill-code="10020020070" data-vill-name="北新里" data-town-id="I02" data-town-code="10020020" data-town-name="西區" data-county-code="10020" data-county-name="嘉義市" aria-label="嘉義市西區北新里" fill-rule="evenodd" d="M359.372 602.986L359.775 603.746L356.761 604.06L356.073 603.802L355.202 601.856L355.224 601.685L355.591 601.361L355.679 601.16L355.645 600.98L355.298 600.454L355.408 600.144L355.857 599.953L357.006 600.087L357.21 600.011L357.316 599.794L357.737 600.085Z" />
  </g>
</svg>
